<svg id="Layer_1" enable-background="new 0 0 512 512" height="512" viewBox="0 0 512 512" width="512" xmlns="http://www.w3.org/2000/svg"><path d="m321 82.5c65.8 65.8 65.8 172.6 0 238.5s-172.6 65.8-238.5 0-65.8-172.6 0-238.5c65.9-65.8 172.6-65.8 238.5 0z" fill="#9ebacc"/><path d="m301.5 101.9c55.1 55.1 55.1 144.5 0 199.6s-144.5 55.1-199.6 0-55.1-144.5 0-199.6c55.2-55 144.5-55 199.6 0z" fill="#efcf9e"/><path d="m131.9 101.9c22.8-22.8 52.7-37.1 84.8-40.5-77.5-8.3-147 47.8-155.3 125.3s47.8 147 125.3 155.3c10 1.1 20 1.1 30 0-77.5-8.3-133.6-77.8-125.3-155.3 3.4-32 17.7-61.9 40.5-84.8z" fill="#d3b388"/><path d="m468.5 418.6c13.8 13.7 13.9 36.1.2 49.9s-36.1 13.9-49.9.2c-.1-.1-.2-.2-.2-.2l-74.9-74.9 49.9-49.9z" fill="#8aa3b2"/><path d="m368.7 318.9-49.8 49.8 24.9 25 49.9-49.9z" fill="#9ebacc"/><path d="m191.9 93.6c56.1 0 101.5 45.6 101.5 101.8 0 56.1-45.5 101.6-101.5 101.6-56.1 0-101.6-45.5-101.6-101.5 0-56.3 45.5-101.9 101.6-101.9z" fill="#8ea3ca"/><path d="m191.9 114.2c44.8-.1 81.3 36.1 81.4 81s-36.1 81.3-81 81.4c-44.8.1-81.3-36.1-81.4-81 0-.1 0-.1 0-.2 0-44.7 36.2-81.1 81-81.2z" fill="#a9b9d8"/><path d="m211.9 175.3c11.1 11.1 11.1 29.1 0 40.2s-29.1 11.1-40.2 0-11.1-29.1 0-40.2c11.2-11 29.1-11 40.2 0z" fill="#8ea3ca"/><g fill="#728a96"><ellipse cx="246.7" cy="195.5" rx="12.6" ry="12.7"/><ellipse cx="191.9" cy="195.4" rx="10.8" ry="10.8"/><ellipse cx="192" cy="250.4" rx="12.6" ry="12.7"/><path d="m200.7 131.5c5 4.9 5 13 0 17.9-4.9 5-13 5-17.9 0s-5-13 0-17.9c5-4.9 13-4.9 17.9 0z"/></g><path d="m134.9 195.4c0-42.3 30.3-78.5 72-85.9-47.4-8.3-92.6 23.5-100.9 70.9s23.5 92.6 70.9 100.9c9.9 1.7 20 1.7 30 0-41.7-7.3-72-43.6-72-85.9z" fill="#99a8c1"/><ellipse cx="137" cy="195.4" fill="#728a96" rx="12.6" ry="12.7"/><g fill="#284268"><path d="m201.7 54.6c-39.3 0-76.2 15.3-104 43.1s-43.1 64.7-43.1 104 15.3 76.2 43.1 104 64.7 43.1 104 43.1 76.2-15.3 104-43.1c14-14 24.9-30.4 32.3-48.7 22.3-54.9 9.6-117.5-32.3-159.4-27.7-27.7-64.7-43-104-43zm125.3 198c-6.8 16.8-16.8 31.8-29.7 44.7-25.5 25.5-59.5 39.6-95.6 39.6s-70-14.1-95.6-39.6c-25.5-25.5-39.6-59.5-39.6-95.6s14.1-70 39.6-95.6c25.5-25.5 59.5-39.6 95.6-39.6s70 14.1 95.6 39.6c38.5 38.6 50.1 96.1 29.7 146.5z"/><path d="m472.8 414.4-99.8-99.8c-2.3-2.3-6.1-2.3-8.5 0l-20.7 20.7-14.4-14.4c14.7-15.7 26.2-33.6 34.2-53.4 26.4-65.2 11.4-139.5-38.4-189.2-68.1-68.1-178.9-68.1-246.9 0-68.1 68.1-68.1 178.9 0 246.9 34 34 78.8 51.1 123.5 51.1 42.8 0 85.7-15.6 119.2-46.9l14.4 14.4-20.7 20.7c-2.3 2.3-2.3 6.1 0 8.5l99.8 99.8c7.8 7.8 18.2 12.1 29.2 12.1s21.4-4.3 29.2-12.1 12.1-18.2 12.1-29.2-4.4-21.4-12.2-29.2zm-386-97.7c-63.4-63.4-63.4-166.6 0-230 31.7-31.7 73.3-47.6 115-47.6s83.3 15.9 115 47.6c46.3 46.3 60.3 115.5 35.7 176.2-8.2 20.2-20.2 38.3-35.7 53.8-63.5 63.4-166.6 63.4-230 0zm281.9 10.6 16.5 16.5-41.4 41.4-16.5-16.5zm95.6 137c-5.5 5.5-12.9 8.6-20.7 8.6s-15.2-3-20.7-8.6l-70.6-70.6 41.4-41.4 70.6 70.6c5.5 5.5 8.6 12.9 8.6 20.7s-3.1 15.2-8.6 20.7z"/><path d="m299.4 195.4c0-59.5-48.2-107.8-107.5-107.8s-107.5 48.4-107.5 107.8c0 58.6 46.8 106.4 105 107.8h75.2c16 0 29.1-13.1 29.1-29.2 0-9.1 7.4-16.5 16.4-16.5 3.3 0 6-2.7 6-6s-2.7-6-6-6c-15.7 0-28.4 12.8-28.4 28.5 0 9.5-7.7 17.2-17.1 17.2h-23.3c34.4-17.9 58.1-54.1 58.1-95.8zm-107.5 95.9c-52.7 0-95.5-43-95.5-95.8s42.9-95.8 95.5-95.8 95.5 43 95.5 95.8-42.8 95.8-95.5 95.8z"/><path d="m191.9 177c-4.9 0-9.5 1.9-13 5.4-7.2 7.2-7.2 18.9 0 26.1 3.5 3.5 8.1 5.4 13 5.4s9.5-1.9 13-5.4c7.2-7.2 7.2-18.9 0-26.1-3.5-3.5-8.1-5.4-13-5.4zm4.5 23c-1.2 1.2-2.8 1.9-4.5 1.9s-3.3-.7-4.5-1.9c-2.5-2.5-2.5-6.6 0-9.1 1.2-1.2 2.8-1.9 4.5-1.9s3.3.7 4.5 1.9c2.5 2.5 2.5 6.6 0 9.1z"/><path d=""/><path d="m192 232.3c-4.7 0-9.2 1.8-12.5 5.2-6.9 6.9-6.9 18.2 0 25.1 3.3 3.4 7.8 5.2 12.5 5.2 4.7 0 9.2-1.8 12.5-5.2 6.9-6.9 6.9-18.2 0-25.1-3.4-3.4-7.8-5.2-12.5-5.2zm4 21.8c-1.1 1.1-2.5 1.7-4 1.7s-3-.6-4-1.7c-2.2-2.2-2.2-5.9 0-8.1 1.1-1.1 2.5-1.7 4-1.7s3 .6 4 1.7c2.2 2.2 2.2 5.8 0 8.1z"/><path d="m258.8 183c-3.3-3.4-7.8-5.2-12.5-5.2s-9.2 1.8-12.5 5.2c-6.9 6.9-6.9 18.2 0 25.1 3.3 3.4 7.8 5.2 12.5 5.2s9.2-1.8 12.5-5.2c6.9-7 6.9-18.2 0-25.1zm-8.5 16.6c-1.1 1.1-2.5 1.7-4 1.7s-3-.6-4-1.7c-2.2-2.2-2.2-5.9 0-8.1 1.1-1.1 2.5-1.7 4-1.7s3 .6 4 1.7c2.3 2.2 2.3 5.8 0 8.1z"/><path d="m191.8 158.6c4.7 0 9.2-1.8 12.5-5.2 6.9-6.9 6.9-18.2 0-25.1-3.3-3.4-7.8-5.2-12.5-5.2s-9.2 1.8-12.5 5.2c-6.9 6.9-6.9 18.2 0 25.1 3.3 3.3 7.8 5.2 12.5 5.2zm-4-21.8c1.1-1.1 2.5-1.7 4-1.7s3 .6 4 1.7c2.2 2.2 2.2 5.9 0 8.1-1.1 1.1-2.5 1.7-4 1.7s-3-.6-4-1.7c-2.3-2.2-2.3-5.9 0-8.1z"/><path d="m137.4 177.6c-4.7 0-9.2 1.8-12.5 5.2-6.9 6.9-6.9 18.2 0 25.1 3.3 3.4 7.8 5.2 12.5 5.2s9.2-1.8 12.5-5.2c6.9-6.9 6.9-18.2 0-25.1-3.3-3.3-7.7-5.2-12.5-5.2zm4.1 21.8c-1.1 1.1-2.5 1.7-4 1.7s-3-.6-4-1.7c-2.2-2.2-2.2-5.9 0-8.1 1.1-1.1 2.5-1.7 4-1.7s3 .6 4 1.7c2.2 2.2 2.2 5.9 0 8.1z"/><path d="m216.1 171.2c-6.5-6.5-15.1-10.1-24.2-10.1s-17.7 3.6-24.2 10.1c-13.3 13.4-13.3 35.1 0 48.5 6.5 6.5 15.1 10.1 24.2 10.1s17.7-3.6 24.2-10.1c13.3-13.4 13.3-35.1 0-48.5zm-8.5 40c-4.2 4.2-9.8 6.5-15.7 6.5s-11.5-2.3-15.7-6.5c-8.7-8.7-8.7-22.9 0-31.6 4.2-4.2 9.8-6.5 15.7-6.5s11.5 2.3 15.7 6.5c8.7 8.8 8.7 22.9 0 31.6z"/><path d="m191.9 108.8c-47.7 0-86.4 38.9-86.4 86.7s38.8 86.7 86.4 86.7 86.4-38.9 86.4-86.7-38.8-86.7-86.4-86.7zm0 161.3c-41 0-74.4-33.5-74.4-74.7s33.4-74.7 74.4-74.7 74.4 33.5 74.4 74.7-33.4 74.7-74.4 74.7z"/></g></svg>